<svg xmlns="http://www.w3.org/2000/svg" viewBox="0 0 371.827 86.32">
    <g fill="#ff5500">
        <path d="M371.679 64.359c-1.956 1.453-3.41 2.055-5.016 2.055-2.558 0-3.86-1.352-3.86-3.962v-9.877h8.876v-5.919h-8.876v-7.32l-7.471 1.856v5.464h-3.913v5.919h3.913v10.53c0 6.368 3.06 9.728 8.724 9.728 2.407 0 4.664-.602 6.617-1.756l1.156-6.618-.15-.1m-29.335-7.823c-2.257-.552-3.712-1.052-4.413-1.455-.703-.35-1.052-.853-1.052-1.504 0-1.153 1.302-1.905 3.458-1.905 2.659 0 6.119 1.153 9.127 3.108l.15-.05v-6.418c-2.757-1.455-5.766-2.206-8.975-2.206-6.57 0-10.78 3.159-10.78 7.974 0 3.96 2.256 6.167 8.924 7.922 2.257.601 3.762 1.102 4.513 1.503.752.401 1.103.954 1.103 1.656 0 1.203-1.403 2.055-3.56 2.055-3.559 0-7.571-1.503-11.432-4.162l-.15.1 1.003 6.871c3.259 1.954 6.468 2.806 10.128 2.806 3.31 0 5.967-.75 8.021-2.255 2.008-1.454 3.01-3.41 3.01-5.816 0-2.157-.652-3.812-1.955-5.065-1.304-1.255-3.659-2.307-7.12-3.16m-22.667 7.171c-2.154 1.806-3.661 2.508-5.514 2.508-2.759 0-4.264-1.755-4.264-4.815V46.656h-7.62v16.297c0 6.068 3.358 9.88 8.625 9.88 3.61 0 6.217-1.555 8.975-5.166v4.613h7.37V46.656h-7.572v17.05m-21.412-17.45c-2.758 0-4.866 1.705-8.426 6.72v-6.67l-7.419.953V72.28h7.62V57.288c3.26-2.207 5.767-3.11 8.524-3.11.653 0 1.204 0 1.808.152l-.453-7.874c-.752-.15-1.103-.2-1.654-.2m-14.844-9.076h-33.144v7.271h12.534v27.83h8.074v-27.83h12.536V37.18M240.65 48.763c-2.157-1.654-4.415-2.508-6.822-2.508-3.46 0-6.419 1.305-8.773 3.912-2.408 2.659-3.61 5.917-3.61 9.878 0 3.662 1.052 6.67 3.208 9.077 2.104 2.458 4.714 3.661 7.822 3.661 3.209 0 5.766-1.254 8.325-4.112v3.61h7.42V34.27l-7.57 2.007zm0 15.696c-2.058 1.403-3.762 1.955-5.567 1.955-3.66 0-6.268-2.758-6.268-6.82 0-4.161 2.757-7.02 6.718-7.02 1.804 0 3.359.402 5.116 1.405v10.48m-30.188-18.404c-3.46 0-6.168 1.555-8.926 5.166v-4.915l-7.42.952v25.023h7.62v-17.1c2.157-1.804 3.612-2.455 5.466-2.455 2.759 0 4.312 1.753 4.312 4.763V72.28h7.574V55.934c0-6.068-3.36-9.879-8.626-9.879m-32.491-.099c-3.96 0-7.27 1.302-9.927 3.91-2.659 2.658-3.962 5.869-3.962 9.629 0 3.809 1.303 7.02 3.911 9.577 2.559 2.608 5.867 3.912 9.928 3.912 3.961 0 7.27-1.304 9.928-3.961 2.657-2.66 3.961-5.87 3.961-9.63 0-3.81-1.304-7.019-3.861-9.578-2.608-2.557-5.917-3.859-9.977-3.859m-.051 20.559c-3.66 0-6.47-3.008-6.47-7.02 0-4.062 2.71-7.07 6.52-7.07 3.76 0 6.47 2.957 6.47 6.968 0 4.062-2.76 7.122-6.52 7.122m-20.41-19.858l-5.767 16.097-6.318-16.097H137.2l10.683 24.57c-1.156 2.758-2.81 3.962-5.567 3.962-1.405 0-2.708-.35-4.264-1.153l-.101.1 1.456 6.919c1.402.603 2.808.854 4.412.854 5.265 0 9.025-3.01 11.484-9.378l10.28-25.874h-8.074"/>
        <path d="M128.323 66.866c-4.161 0-6.919-1.957-7.72-5.366H138.3c.051-.851.151-1.755.151-2.156 0-4.013-1.101-7.272-3.259-9.728-2.204-2.458-5.162-3.66-8.923-3.66-3.764 0-6.823 1.303-9.277 3.86-2.459 2.609-3.711 5.817-3.711 9.577 0 4.062 1.252 7.322 3.76 9.78 2.456 2.456 5.766 3.66 9.929 3.66 3.26 0 5.768-.553 8.825-2.006l2.055-6.368-.15-.1c-3.258 1.654-6.319 2.507-9.378 2.507m-2.204-15.445c2.957 0 4.913 2.206 5.263 5.767h-10.83c.402-3.461 2.558-5.767 5.567-5.767m-20.91 2.557c3.21-1.653 4.965-4.312 4.965-7.522 0-5.817-4.412-9.276-11.835-9.276H85.352v35.1H98.39c3.963 0 7.171-.903 9.577-2.758 2.357-1.805 3.56-4.262 3.56-7.32 0-3.812-2.156-6.67-6.318-8.225m-12.183-10.58h4.362c3.16 0 5.064 1.454 5.064 4.011 0 2.608-2.105 4.313-5.366 4.313h-4.06zm4.762 22.665h-4.762v-8.775h4.561c3.861 0 6.019 1.555 6.019 4.412 0 2.657-2.207 4.363-5.818 4.363M63.896 35.4l-7.65-7.648a.197.197 0 0 0-.23-.045.21.21 0 0 0-.125.193v53.735c0 .084.051.16.125.192a.185.185 0 0 0 .082.016.2.2 0 0 0 .147-.06l7.651-7.651c.28-.276.525-.867.525-1.268V36.672c0-.395-.244-.99-.525-1.273m-22.11 27.255a1.07 1.07 0 0 1-1.068 1.067H23.701a1.068 1.068 0 0 1-1.066-1.067V46.88c0-.588.479-1.066 1.066-1.066h17.017a1.07 1.07 0 0 1 1.068 1.066zm8.344-39.439H23.013c-.23 0-.42-.19-.42-.419V.218a.21.21 0 0 0-.126-.192.196.196 0 0 0-.23.045L14.59 7.72c-.277.277-.528.88-.528 1.269v22.549c0 .114.094.206.207.206h27.098c.229 0 .419.19.419.42v4.045c0 .591-.48 1.07-1.068 1.07h-26.45a.206.206 0 0 0-.206.209l.004 28.77a6.001 6.001 0 0 0 5.994 5.995h20.658c.589 0 1.068.48 1.068 1.067v4.048c0 .23-.19.42-.42.42H20.06c-6.356 0-11.53-5.173-11.53-11.53V14.285a.213.213 0 0 0-.126-.193.2.2 0 0 0-.229.045L.524 21.784c-.273.273-.525.88-.525 1.268v45.7C0 78.439 7.88 86.32 17.565 86.32H50.13a.21.21 0 0 0 .208-.209l.02-62.667a.245.245 0 0 0-.228-.23"/>
    </g>
</svg>
